# xmcd
#
# Track frame offsets:
#	150
#	16907
#	34285
#	54210
#	68147
#	87967
#	109115
#	130845
#	148597
#	163005
#	183237
#	203760
#	222702
#	239650
#	261565
#	278592
#	298020
#
# Disc length: 4254 seconds
#
# Revision: 2
# Processed by: cddbd v1.4PL0 Copyright (c) Steve Scherf et al.
# Submitted via: EZCDDA 4.3.2
#
DISCID=05109c11
DTITLE=Inconnu
DYEAR=1900
DGENRE=
TTITLE0=Babel
TTITLE1=Vivre
TTITLE2=I don't know
TTITLE3=Mishaela
TTITLE4=Child of Man
TTITLE5=He
TTITLE6=Pines
TTITLE7=Piste 8
TTITLE8=Piste 9
TTITLE9=Piste 10
TTITLE10=Piste 11
TTITLE11=Piste 12
TTITLE12=Piste 13
TTITLE13=Piste 14
TTITLE14=Piste 15
TTITLE15=Piste 16
TTITLE16=Piste 17
EXTD=
EXTT0=
EXTT1=
EXTT2=
EXTT3=
EXTT4=
EXTT5=
EXTT6=
EXTT7=
EXTT8=
EXTT9=
EXTT10=
EXTT11=
EXTT12=
EXTT13=
EXTT14=
EXTT15=
EXTT16=
PLAYORDER=
